# xmcd
#
# Track frame offsets: 
#        150
#        10875
#        22450
#        33962
#        46390
#        57330
#        68515
#        79725
#        91500
#        103300
#        112437
#        124012
#        135475
#        145547
#        156197
#        167062
#        177400
#        187147
#        198707
#        209812
#
# Disc length: 2938 seconds
#
# Revision: 1
# Processed by: cddbd v1.5.2PL0 Copyright (c) Steve Scherf et al.
# Submitted via: ExactAudioCopyFreeDBPlugin 1.0
#
DISCID=280b7814
DTITLE=Patsy Cline - Unforgetable Classics (Volume 2)
DYEAR=1994
DGENRE=Country
TTITLE0=I Don't Wanna
TTITLE1=Let The Teardrops Fall
TTITLE2=I've Loved And Lost Again
TTITLE3=Fingerprints
TTITLE4=I Can't Forget You
TTITLE5=Just Out Of Reach (Of My Two Open Arms)
TTITLE6=Hungry For Your Love
TTITLE7=If I Could Only Stay Asleep
TTITLE8=Today, Tomorrow And Forever
TTITLE9=I Love You, Honey
TTITLE10=Never No More
TTITLE11=Walkin' After Midnight
TTITLE12=Pick Me Up On Your Way Down
TTITLE13=Honky Tonk Merry Go Round
TTITLE14=I Cried All The Way To The Altar
TTITLE15=Too Many Secrets
TTITLE16=Three Cigarettes In An Ashtray
TTITLE17=In Care Of The Blues
TTITLE18=Stop The World (And Let Me Off)
TTITLE19=I Can See An Angel
EXTD=Patsy Cline - Unforgetable Classics
EXTT0=
EXTT1=
EXTT2=
EXTT3=
EXTT4=
EXTT5=
EXTT6=
EXTT7=
EXTT8=
EXTT9=
EXTT10=
EXTT11=
EXTT12=
EXTT13=
EXTT14=
EXTT15=
EXTT16=
EXTT17=
EXTT18=
EXTT19=
PLAYORDER=
